<svg version="1.1" xmlns="http://www.w3.org/2000/svg" xmlns:xlink="http://www.w3.org/1999/xlink" width="7.15694" height="5" viewBox="0,0,7.15694,5"><defs><radialGradient cx="247.7275" cy="171.1396" r="38.5299" gradientUnits="userSpaceOnUse" id="color-1"><stop offset="0" stop-color="#ffff99"/><stop offset="1" stop-color="#ff9400"/></radialGradient></defs><g transform="translate(-235.63013,-177.32571)"><g data-paper-data="{&quot;isPaintingLayer&quot;:true}" fill-rule="nonzero" stroke="none" stroke-linecap="butt" stroke-linejoin="miter" stroke-miterlimit="10" stroke-dasharray="" stroke-dashoffset="0" style="mix-blend-mode: normal"><path d="" fill="url(#color-1)" stroke-width="1"/><path d="" fill="#ff0000" stroke-width="0.5"/><path d="M235.63013,180.67744c0,-0.27928 0.09159,-0.53717 0.24637,-0.74527c-0.15478,-0.2081 -0.24637,-0.46599 -0.24637,-0.74527c0,-0.69036 0.55964,-1.25 1.25,-1.25c0.52711,0 0.97801,0.32626 1.16179,0.78785c0.40713,-0.82868 1.25953,-1.39905 2.24515,-1.39905c1.38071,0 2.5,1.11929 2.5,2.5c0,1.38071 -1.11929,2.5 -2.5,2.5c-0.95193,0 -1.7796,-0.53205 -2.20186,-1.31499c-0.14585,0.52856 -0.63014,0.91673 -1.20508,0.91673c-0.69036,0 -1.25,-0.55964 -1.25,-1.25z" fill="#ff0000" stroke-width="0.5"/></g></g></svg>