<svg version="1.1" xmlns="http://www.w3.org/2000/svg" xmlns:xlink="http://www.w3.org/1999/xlink" width="744.40455" height="479.52091" viewBox="0,0,744.40455,479.52091"><g transform="translate(107.83369,85.23602)"><g data-paper-data="{&quot;isPaintingLayer&quot;:true}" fill-rule="nonzero" stroke="none" stroke-linecap="butt" stroke-linejoin="miter" stroke-miterlimit="10" stroke-dasharray="" stroke-dashoffset="0" style="mix-blend-mode: normal"><g stroke-width="0.5024"><path d="M-0.3476,-0.5464h482.3087v360.6263h-482.3087v-360.6263" fill="#000000"/><g fill="#281446"><path d="M423.6319,128.1671c-7.8877,11.2036 -27.4815,6.9834 -39.1373,6.9332c-0.0503,0.3014 -0.1507,0.5526 -0.2512,0.8541c-0.3015,-0.2512 -0.5527,-0.5527 -0.7536,-0.8541l-12.3592,-0.0502c-5.9786,2.7632 -9.6462,3.2153 -13.6152,9.0432c-3.4163,4.9738 -6.6317,9.0936 -12.4596,11.3042c-11.0027,4.1197 -24.7686,2.4115 -36.2234,2.1603c-14.1176,-0.3517 -28.1849,-1.1053 -42.3025,-1.3063c-7.1341,-0.1004 -14.3185,0 -21.5029,-0.0502c-5.3758,0 -11.1032,0.3517 -16.1775,-1.7584c-8.5409,-3.5671 -11.2538,-13.5147 -19.2421,-17.7349c-9.194,-4.9236 -21.101,-2.8135 -31.0988,-2.8135c-18.3881,0.0503 -44.2117,-3.1651 -52.853,-22.4072c-10.0984,-22.4073 26.2255,-23.0604 38.7354,-24.8188c10.45,-1.5073 18.9406,-4.7226 24.5173,-14.1176c5.1748,-8.7419 8.2395,-15.876 19.5436,-16.2779c32.0534,-1.1556 64.5088,-0.6029 96.6125,0c16.4286,0.3014 32.9075,0.6531 49.2859,2.1101c5.6772,0.5024 13.163,0.854 17.4334,5.1747c3.1149,3.1652 3.3661,7.5361 4.9738,11.4046c1.7082,4.17 4.8734,6.6318 8.6414,8.8926c10.9524,1.1053 31.2496,-0.3015 37.2785,11.2539c5.024,9.5457 7.6365,23.613 0.9545,33.0582z"/><path d="M481.9611,15.7791l-15.9764,20.4981c-11.5051,0 -18.7397,-4.4714 -24.7184,-7.536c-8.7418,-4.5217 -15.1224,-8.2897 -31.9529,-8.2897c-10.3496,0 -42.5035,9.0433 -59.4848,8.4906c-16.9812,-0.5526 -35.1181,-8.4906 -53.8075,-8.4906c-28.3357,0 -25.4217,13.4644 -53.7071,13.4644c-3.4164,0 -6.5313,-0.1507 -9.4452,-0.3516c-8.7921,-0.6532 -17.333,-3.0145 -25.1705,-7.0337c-20.4479,-10.0481 -41.2475,-4.0695 -46.6734,-1.4067c-10.2491,4.9738 -16.8808,12.2084 -35.4196,12.2084c-12.1582,0 -18.4885,-5.0241 -24.5676,-8.5409c-8.0887,-4.7226 -15.4238,-8.2897 -31.6013,-8.2897c-28.3356,0 -41.5488,15.8258 -69.8342,15.8258v-36.8263h482.3087v16.2779z"/><path d="M164.0895,2.0132h283.7583c7.7371,0 34.2641,0.402 34.1133,2.8135c-1.3062,18.7899 -55.6664,34.5152 -135.5488,40.6948c-21.8546,1.7082 -43.9604,-1.0551 -65.7648,-3.0647c-36.2737,-3.3158 -104.7514,4.8231 -116.558,-40.4938z"/><path d="M34.9715,69.6872c0.4019,-4.6724 5.8279,-5.6772 9.6461,-6.2299c5.5767,-0.854 11.2539,-1.2057 16.8809,-1.055c10.6007,0.4019 21.2517,-0.1005 31.8022,0.7034c5.6772,3.6173 0.8038,8.2896 -4.0193,9.4954c-6.1293,1.5072 -12.5601,1.1556 -18.8401,1.457c-6.6318,0.3014 -13.2133,0.1507 -19.845,0.1507c-5.4762,0 -12.7109,0.9043 -15.6248,-4.5216z"/><path d="M152.7352,37.9854c0.4019,-4.6723 5.8279,-5.6772 9.6462,-6.2298c5.5767,-0.8541 11.2538,-1.2058 16.8808,-1.0551c10.6007,0.402 21.2517,-0.1004 31.8022,0.7034c5.6772,3.6173 0.8038,8.2897 -4.0192,9.4955c-6.1294,1.5072 -12.5602,1.1555 -18.8402,1.4569c-6.6318,0.3015 -13.2133,0.1508 -19.845,0.1508c-5.426,0 -12.6606,0.9043 -15.6248,-4.5217z"/><path d="M33.3135,102.5947c0.8541,-9.8974 12.4094,-12.0075 20.4982,-13.163c11.8065,-1.7082 23.9647,-2.6628 35.8717,-2.2106c22.4575,0.9043 45.0657,-0.201 67.4729,1.457c12.0075,7.6365 1.658,17.5841 -8.5408,20.1464c-12.9621,3.2656 -26.728,2.512 -39.9412,3.0647c-14.0171,0.6029 -27.984,0.3014 -42.0513,0.3517c-11.7563,0 -27.0796,1.9091 -33.3095,-9.6462z"/><path d="M411.6747,67.3761c0.4019,-7.1844 5.4762,-8.7418 9.0433,-9.6462c5.1747,-1.256 2.512,-0.8038 12.4094,-0.6531c7.1341,0.1005 9.2442,14.0673 3.6173,15.5243c-5.8279,1.5072 -4.3207,1.5072 -10.5003,1.5575c-5.1245,0.1005 -11.8567,1.5574 -14.5697,-6.7825z"/><path d="M389.5689,152.8352c0.5526,-7.1844 7.6365,-8.6916 12.5601,-9.5457c7.2346,-1.2058 3.5168,-0.7536 17.333,-0.5527c9.9476,0.1005 13.0123,14.1176 5.1747,15.5244c-8.1389,1.5072 -6.0288,1.4569 -14.6702,1.5072c-7.1341,0 -16.5794,1.4067 -20.3976,-6.9332z"/><path d="M69.336,140.5765c-1.0048,-2.2106 -1.0048,-2.2106 -0.9546,-3.5168c4.0695,-4.2705 9.7467,-4.4212 15.2731,-4.371c3.4666,0.0503 11.5553,0.201 10.7515,5.0743c-0.7034,4.17 -5.3255,4.7729 -8.8926,5.3255c-5.4762,1.0048 -11.2036,0.1005 -16.1774,-2.512z"/></g><g><path d="M116.4814,-0.4988c-1.7082,8.4404 -2.512,10.45 -8.6413,17.8856c-18.79,22.759 -51.5468,17.1823 -64.5591,-0.8038c-4.3207,-6.0289 -5.5767,-10.1486 -6.1293,-17.0818z" fill="#f0e6d2"/><path d="M54.2837,1.9127c2.2608,0 4.2704,0.9044 5.7274,2.3613c1.457,1.457 2.3613,3.5169 2.3613,5.7275c0,2.2105 -0.9043,4.2704 -2.3613,5.7274c-1.457,1.457 -3.5168,2.3613 -5.7274,2.3613c-2.2106,0 -4.2705,-0.9043 -5.7274,-2.3613c-1.457,-1.457 -2.3613,-3.5169 -2.3613,-5.7274c0,-2.2106 0.9043,-4.2202 2.3613,-5.7275c1.4569,-1.4569 3.5168,-2.3613 5.7274,-2.3613z" fill="#dcd2b4"/><path d="M70.7123,16.2815c0.8039,0 1.5575,0.3517 2.1101,0.8541c0.5527,0.5527 0.8541,1.3063 0.8541,2.1101c0,0.8039 -0.3517,1.5575 -0.8541,2.1101c-0.5526,0.5527 -1.3062,0.8541 -2.1101,0.8541c-0.8038,0 -1.5574,-0.3517 -2.1101,-0.8541c-0.5526,-0.5526 -0.8541,-1.3062 -0.8541,-2.1101c0,-0.8038 0.3517,-1.5574 0.8541,-2.1101c0.5527,-0.5024 1.3063,-0.8541 2.1101,-0.8541z" fill="#dcd2b4"/><path d="M132.1565,12.413c1.3564,0 2.6125,0.5527 3.5168,1.457c0.9043,0.9043 1.457,2.1603 1.457,3.5168c0,1.3565 -0.5527,2.6125 -1.457,3.5169c-0.9043,0.9043 -2.1604,1.4569 -3.5168,1.4569c-1.3565,0 -2.6126,-0.5526 -3.5169,-1.4569c-0.9043,-0.9044 -1.457,-2.1604 -1.457,-3.5169c0,-1.3565 0.5527,-2.6125 1.457,-3.5168c0.8541,-0.9043 2.1101,-1.457 3.5169,-1.457z" fill="#dcd2b4"/></g><path d="M254.221,-0.5464c0.0502,49.4869 -0.4522,178.605 -1.0048,186.543c-0.9546,0.3516 -1.9594,0.5526 -3.0145,0.5526c-0.9545,-0.9043 -0.8038,-139.6686 -0.0502,-187.0956z" fill="#460a00"/><path d="M159.1157,-0.5464c0.1508,49.4869 -0.7033,165.04 -1.7081,172.978c-1.658,0.3517 -3.3662,0.5527 -5.0743,0.5527c-1.6077,-0.9546 -1.3063,-126.1037 -0.0503,-173.5307z" fill="#460a00"/><g><path d="M481.9109,159.207v25.6729l-482.3087,-1.3062v-45.317c28.2854,0 41.4986,15.8258 69.8342,15.8258c16.1775,0 23.5126,-3.5671 31.6013,-8.2897c6.0791,-3.5168 12.4094,-8.5409 24.5676,-8.5409c18.5388,0 25.1705,7.2347 35.4196,12.2085c5.4259,2.6627 26.2255,8.6413 46.6734,-1.4068c7.8375,-4.0192 16.3784,-6.3805 25.1705,-7.0336c2.9139,-0.201 6.0288,-0.3517 9.4452,-0.3517c28.2854,0 25.3714,13.4644 53.7071,13.4644c18.6894,0 36.8263,-7.938 53.8075,-8.4906c16.9813,-0.5527 49.1352,8.4906 59.4848,8.4906c16.8305,0 23.2111,-3.768 31.9529,-8.2897c5.9284,-3.0646 29.1898,-7.536 40.6948,-7.536v20.9z" fill="#463c00"/><path d="M233.7731,182.9708h-38.6349c1.8086,-6.7323 5.6269,-11.7061 12.3089,-14.3186c3.3661,-1.3565 6.8327,-2.1603 10.3495,-1.8589c6.1796,0.5024 11.5553,3.0145 14.3688,9.8974c0.201,0.5024 0.5527,1.0048 0.7536,1.5072c0.6531,1.5072 0.9546,3.1149 0.8541,4.7226z" fill="#322800"/><path d="M168.5609,183.5234h-95.2057c4.4212,-6.7322 13.9166,-11.706 30.3453,-14.3185c8.3901,-1.457 16.9813,-2.0599 25.5221,-1.8589c15.2731,0.5024 28.4362,3.0144 35.4196,9.8974c0.5024,0.5024 1.3062,1.0048 1.8589,1.5072c1.6077,1.5574 2.2608,3.1651 2.0598,4.7226z" fill="#322800"/></g><g><path d="M398.21,24.8727c-0.9044,7.5863 -1.6077,15.1726 -2.6126,22.8594c-1.0048,7.737 -3.2153,15.7755 -7.0336,22.6082c-0.4019,0.7034 -0.8039,1.457 -1.1556,2.1603l-0.9545,-8.5911c2.8134,-6.0791 5.024,-12.5099 6.481,-19.0914c1.6077,-7.4858 2.512,-15.0721 2.713,-22.7087c0.1005,-3.8685 1.9091,-7.6868 2.1101,-11.5553c0.2009,-3.2656 0.6029,-7.8877 1.3565,-11.0529c0.7536,0 1.5574,-0.2512 2.311,0c1.3565,7.3854 -2.4115,17.9359 -3.2153,25.3715z" fill="#460a00"/><path d="M354.8524,32.5092c0.7536,-0.3014 1.5072,-0.5024 2.3111,-0.5526c0.8541,3.1651 0.5024,6.6317 0.8541,9.8471c0.4019,3.8183 0.4521,7.6868 0.7033,11.5553c0.5024,7.6366 1.7584,15.1726 3.6676,22.558c1.8086,6.682 4.3207,13.1128 7.5361,19.1919c1.7081,3.3158 3.8182,6.4307 5.6771,9.6964c1.8589,3.2154 3.1149,6.5815 5.0743,9.7466c0,1.1556 0.5024,2.3111 0,3.6676c-2.2106,-2.512 -4.6221,-4.8733 -6.7322,-7.4356c-2.3613,-2.914 -4.0695,-6.3303 -6.0289,-9.4955c-4.1197,-6.6317 -6.6317,-14.6199 -7.9882,-22.2565c-1.3565,-7.6868 -2.3613,-15.1726 -3.5671,-22.7589c-1.2058,-7.3854 -2.5622,-16.3282 -1.5072,-23.7638z" fill="#824600"/><path d="M382.2837,-0.4988h8.6414c0.0502,1.2058 0.0502,2.5623 0.0502,3.768c0,3.1652 -0.1005,6.3303 -0.1507,9.5457c-0.201,10.1989 -0.4019,20.2972 -0.5526,30.496c-0.402,25.6729 0.7033,51.2453 1.0048,76.9182c0.1507,9.7467 -0.201,19.4933 -0.2512,29.1897c-0.0503,9.8974 0.2512,19.8953 -0.5024,29.6922c-1.3063,0.1507 -9.0433,1.2057 -10.1989,1.0048z" fill="#642800"/><path d="M386.8054,-0.4988c0.1507,49.4869 -0.7034,171.2698 -1.658,179.2078c-1.6579,0.3517 -3.4163,0.5527 -5.1245,0.5527c-1.6077,-0.9546 -1.3063,-132.3335 -0.0502,-179.7605z" fill="#824600"/></g><g><path d="M174.5772,43.2607c1.4569,-2.2106 2.6627,-4.5217 4.2202,-6.7323c1.7081,-2.4115 3.1651,-5.024 4.7226,-7.536c0.6029,-0.9546 1.1555,-1.9594 1.8086,-2.914c1.457,-2.2106 3.0145,-4.4211 4.5217,-6.6317c1.0048,-1.658 2.2106,-3.1652 3.5168,-4.5719c0.8039,-0.2512 1.5072,-0.5024 2.2106,-0.6531c0.3014,0 0.6029,0.0502 0.9043,0.1004c0,0.2513 0.0503,0.3517 0,0.4522c-1.457,2.7632 -2.8637,5.5767 -4.4714,8.2897c-2.2608,3.8183 -4.6221,7.4858 -6.9834,11.2036c-0.1507,0.3015 -0.3517,0.5527 -0.5527,0.8541c-1.2057,1.7584 -2.3613,3.4666 -3.567,5.225c-1.8087,2.6628 -3.5671,5.3255 -5.426,7.938c-0.6029,0.8541 -1.3063,1.6077 -2.1604,2.2106l-1.1555,-3.4164z" fill="#460a00"/><path d="M199.195,96.6663l3.8685,0.7034c1.3063,0.2512 2.5623,0.5024 3.8685,0.7536c0.6029,0.1507 1.1556,0.3517 1.8087,0.5024c0.2512,0.7034 0.4522,1.3565 0.7536,2.1603c-0.4522,0 -0.9043,-0.0502 -1.3565,-0.1004c-2.9139,-0.6029 -5.8279,-1.2561 -8.7921,-1.8589c-0.0502,-0.7034 -0.1507,-1.457 -0.1507,-2.1604z" fill="#460a00"/><path d="M179.7519,96.2644c-0.2512,0.9546 -0.5024,1.9091 -0.8038,2.8135c-0.7536,2.512 -1.457,5.024 -2.2608,7.536c-0.1005,0.3517 -0.2512,0.7034 -0.3517,1.0551c-0.7034,-0.0503 -1.457,-0.1005 -2.1604,-0.1005c0.3015,-0.8541 0.6029,-1.7082 0.8541,-2.6125c0.4522,-1.6077 1.0048,-3.1652 1.658,-4.6724c0.8038,-1.8589 1.5072,-3.8182 2.2608,-5.7274c0.2009,-0.3517 0.4521,-0.6531 0.7034,-0.9546c0.3014,0.8541 0.3516,1.8087 0.1004,2.6628z" fill="#460a00"/><path d="M208.0373,81.142c-0.0502,1.3565 -0.1507,2.7632 -0.2009,4.1197c-0.0503,0.4019 -0.1508,0.8039 -0.1508,1.2058c-0.0502,4.3207 -1.6077,8.1892 -3.6173,11.907c-1.7584,3.4666 -4.4714,6.4308 -7.737,8.5409c-3.2154,2.0096 -6.6318,3.6675 -10.45,4.1197c-2.2609,0.3014 -4.5719,0.5024 -6.8327,0.7034c-2.8135,0.2009 -5.5767,0.7033 -8.2395,1.5574c-3.2656,1.0551 -6.3303,2.713 -9.0433,4.8231c-1.4067,1.1053 -2.8134,2.1603 -4.1699,3.3159c-3.5169,2.9642 -6.5815,6.4308 -9.0433,10.3495c-1.0048,1.6077 -7.0839,11.9573 -7.3351,12.3592l-1.3063,-16.1775c0,-0.9043 9.0935,-11.6055 11.1534,-13.163c3.2656,-2.4115 6.8327,-4.1699 10.45,-5.8781c1.0551,-0.5024 2.1604,-0.8541 3.2154,-1.256c0.5527,-0.201 1.1053,-0.3517 1.658,-0.4522c1.9091,-0.3517 3.8182,-0.7033 6.0288,-1.1053c0.8541,-0.0502 1.658,-0.3014 2.4116,-0.7033c1.5574,-0.201 3.3158,-0.5527 5.0743,-0.6532c1.4569,-0.1507 2.9139,-0.5024 4.3206,-1.0048c3.4666,-1.256 6.682,-3.2656 9.395,-5.8279c0.1507,-0.1507 0.3014,-0.3014 0.5024,-0.4521c2.713,-2.1101 4.5719,-4.8734 6.0791,-7.938c1.3063,-2.6125 2.1101,-5.426 2.4116,-8.34c0.0502,-0.6028 0.2512,-1.2057 0.3516,-1.9091c1.6077,-0.3517 3.2154,-0.1507 4.6724,0.5527c0.1507,0.4521 0.2512,0.9043 0.4019,1.3062z" fill="#642800"/><path d="M173.4216,-0.4988c3.2657,-0.2512 5.426,-0.3517 7.5863,0c0.6029,4.6221 -1.7081,27.984 -2.8637,36.776c-1.5574,12.1582 -5.6771,27.5821 -9.3949,32.8573c-6.0791,8.4907 -17.4335,15.9263 -27.8333,17.3832c-0.4521,-2.4617 0.3517,-4.7226 0.201,-7.1341c2.0599,-0.8541 4.3207,-1.0048 6.3805,-1.9594c2.0599,-0.9546 3.7178,-2.3111 5.5265,-3.5168c3.4163,-2.1604 6.2801,-5.0743 8.4404,-8.5409c2.6125,-4.17 6.481,-14.0673 8.2394,-22.9097c1.7584,-9.2442 3.5671,-37.8311 3.7178,-42.9556z" fill="#642800"/><path d="M72.4382,100.0324c-0.3014,-0.7033 -0.1004,-1.5072 0.5024,-2.0096c1.4068,0.3517 2.8135,0.7034 4.2202,1.1555c1.7082,0.5024 3.3662,1.1556 5.0241,1.7082c0.9043,0.3015 1.9091,0.4019 2.8135,0.6531c0.9043,0.2512 1.9091,0.4522 2.8134,0.8039c0.9044,0.2512 1.5072,1.1555 1.4068,2.0599c-0.5527,0.4019 -1.1556,0.1507 -1.7082,0c-1.5072,-0.3517 -3.0144,-0.6532 -4.5217,-1.0049c-0.5526,-0.1004 -1.1052,-0.2512 -1.6579,-0.4521c-1.4067,-0.7034 -2.8135,-1.256 -4.3207,-1.6077c-1.457,-0.4019 -2.9139,-0.8541 -4.5719,-1.3063z" fill="#642800"/><path d="M99.5179,61.5482c0.1004,1.256 0.2009,2.3613 0.3014,3.5671c-1.0048,-0.201 -1.9594,-0.6531 -2.8135,-1.2058c-2.7129,-1.7082 -5.3757,-3.5168 -8.0384,-5.225l-5.3255,-3.4666c-0.3015,-0.201 -0.5527,-0.3517 -0.8541,-0.5526c-3.5671,-2.5623 -7.2347,-5.0241 -10.7515,-7.6868c-2.512,-1.8589 -4.8733,-3.969 -7.2849,-5.9284c-0.0502,-0.0503 -0.1004,-0.201 -0.1507,-0.4522c0.2512,-0.2009 0.5024,-0.3014 0.8039,-0.4019c0.7536,-0.1005 1.4569,-0.1507 2.2608,-0.2512c1.7584,0.8038 3.4163,1.7584 5.024,2.9139c2.2609,1.457 4.5217,2.914 6.7323,4.4212c0.9545,0.6531 1.8589,1.3063 2.7632,2.0096c2.4115,1.7082 4.7728,3.5671 7.2346,5.1748c2.2106,1.4067 4.2202,3.1149 6.3806,4.6221z" fill="#642800"/><path d="M105.597,134.0452c1.0048,-0.2512 2.0096,0.3015 2.9139,0.6532c3.2154,1.3062 6.2801,2.9139 9.1438,4.8733c2.713,2.0096 5.6269,3.8183 8.6413,5.3757c0.3517,0.201 0.7034,0.4522 1.0049,0.7034c0.1004,0.7536 -0.5527,0.7034 -1.0551,0.5024c-1.457,-0.4522 -2.9139,-1.0048 -4.2704,-1.6579c-4.8231,-2.4618 -9.3448,-5.3758 -13.9669,-8.139c-1.0048,-0.5526 -2.0096,-1.1555 -2.4115,-2.3111z" fill="#642800"/><path d="M142.9759,191.2692c-1.4067,-0.0503 -9.194,-0.7536 -10.651,-0.7536c0,-22.1561 2.4618,-122.3356 2.0096,-150.6713c-0.2512,-13.0625 -0.3014,-27.2806 -0.0502,-40.3431c2.4618,-0.1005 4.4714,0 8.1389,0c1.2058,3.768 0.3517,10.45 0.5527,14.3688c0.1005,1.8086 0.1005,3.6173 0.1507,5.3757c0.1005,6.3806 0.8541,165.8941 -0.1507,172.0235z" fill="#642800"/><path d="M124.7386,-0.549h13.9668c0.5025,48.2308 -0.8038,191.0646 -0.8038,191.0646c0,0 -8.3399,0.6531 -12.2587,-0.201c-0.7536,-4.8231 -0.8541,-163.985 -0.9043,-170.667c-0.0502,-1.6579 -0.0502,-3.3158 -0.0502,-4.9738c0,-0.7536 0.0502,-14.419 0.0502,-15.1726z" fill="#824600"/><path d="M126.7482,111.3868c-11.3543,-8.2395 -17.1822,-15.7253 -21.302,-23.4623c-2.1603,-4.2705 -3.9187,-8.7419 -5.2752,-13.3138c-1.256,-4.0192 -5.0241,-18.7397 -4.5217,-43.5585c0.2512,-14.4692 1.7082,-26.4265 2.1101,-31.6012h6.9332c0.8039,5.3255 -2.7632,27.1801 -0.6029,57.5756c0.5025,6.8829 2.6126,13.5147 4.17,20.1966c1.5072,6.2299 4.0695,12.108 7.6366,17.3833c2.7632,4.3206 6.9834,6.8327 11.3041,9.3949c0.3014,1.256 -0.2512,6.5815 -0.4522,7.3854z" fill="#824600"/><path d="M127.2004,126.7101c0.5024,2.3111 0.8541,4.6222 1.0048,6.9835c-2.1604,1.1555 -12.8616,-3.6174 -14.7707,-4.6222c-3.2657,-1.7081 -6.3303,-3.8182 -9.0433,-6.3303c-26.728,-23.9647 -24.5676,-36.7258 -25.3212,-43.9604l1.7584,-1.7082l1.5072,-0.1507c1.2058,2.3111 1.5575,5.0743 2.4116,7.5361c0.9545,2.6627 2.0096,5.225 3.2656,7.7873c2.4115,4.9235 5.4762,9.4954 9.194,13.5649c3.5671,3.969 7.1342,7.938 11.0529,11.6055c4.3709,4.17 13.2133,7.5361 18.9407,9.2945z" fill="#824600"/><path d="M134.636,97.7214c1.8589,4.9235 2.512,8.4404 1.4569,13.7659c-0.6531,3.4163 -3.1149,7.536 -6.3303,4.4211c-4.1197,-4.0192 -2.1603,-24.0149 4.8734,-18.187z" fill="#642800"/></g><g><path d="M277.6806,177.6868c-1.5072,1.3565 -4.3206,0.7034 -6.1293,0.6531l-7.8375,-0.2009c-5.3757,-0.1508 -10.7515,-0.3015 -16.1774,-0.5527c-4.9739,-0.2512 -9.8974,-0.8541 -14.821,-1.1555c-2.4618,-0.1507 -4.8733,-0.3015 -7.3351,-0.3517c-1.8087,-0.0502 -4.5217,0.4019 -5.9786,-0.9546c3.1149,-3.8685 8.6413,-3.2154 13.1127,-3.2656c5.5265,-0.0502 11.2539,0.3517 16.7804,-0.4522c5.4762,-0.8038 11.1534,-1.4067 16.7803,-0.9545c5.8279,0.4521 8.2897,2.6627 11.6055,7.2346z" fill="#82783c"/><path d="M-0.3,174.5216h482.158v187.3468h-482.158v-187.3468" fill="#645a1e"/><path d="M258.1873,196.8787c1.0551,-10.2993 13.0626,-12.309 21.4527,-13.4142c12.2587,-1.5575 24.9193,-2.4116 37.2785,-1.7585c23.3116,1.256 46.8241,0.4522 70.1357,2.4116c12.3592,8.0887 1.5072,18.2875 -9.1438,20.7995c-13.5147,3.2154 -27.783,2.2106 -41.5489,2.6125c-14.6199,0.4522 -29.0892,-0.0502 -43.7092,-0.2512c-12.2084,-0.0502 -28.1347,1.7082 -34.465,-10.3997z" fill="#82783c"/><path d="M286.322,265.6579c2.3111,-8.6916 7.2849,-15.0721 15.9262,-18.4885c4.371,-1.7082 8.8926,-2.7632 13.4143,-2.3613c8.0384,0.6531 14.9214,3.9188 18.5889,12.8113c0.3015,0.7034 0.7034,1.3063 1.0049,1.9594c0.8038,1.9091 1.1555,4.0192 1.055,6.0791z" fill="#322800"/><path d="M224.5764,274.1485c2.3111,-8.6916 7.2849,-15.0721 15.9263,-18.4885c4.3709,-1.7081 8.8925,-2.7632 13.4142,-2.3613c8.0385,0.6532 14.9214,3.9188 18.589,12.8114c0.3014,0.7033 0.7033,1.3062 1.0048,1.9593c0.8038,1.9092 1.1555,4.0193 1.055,6.0791z" fill="#463c00"/><path d="M171.1206,266.9642c-12.4597,3.4665 -24.1657,2.4115 -36.9268,2.2105c-6.0289,-0.0502 -12.0075,-1.0048 -17.7851,-2.8134c-4.9738,-1.5072 -10.9022,-1.9092 -14.4191,-6.2299c-4.7226,-11.0529 26.3763,-9.4452 31.0989,-9.4954c6.9834,-0.0502 13.9166,0.7536 20.7996,1.7082c7.1844,1.0048 14.3185,1.2057 21.5029,1.8589l1.256,3.567c-0.5526,4.1198 -2.2608,7.0337 -5.5264,9.1941z" fill="#463c00"/><path d="M46.3232,189.5938c0.4019,-4.6724 5.8279,-5.6772 9.6462,-6.2298c5.5766,-0.8541 11.2538,-1.2058 16.8808,-1.0551c10.6007,0.4019 21.2517,-0.1005 31.8022,0.7034c5.6772,3.6173 0.8038,8.2897 -4.0192,9.4954c-6.1294,1.5073 -12.5602,1.1556 -18.8402,1.457c-6.6318,0.3015 -13.2133,0.1507 -19.845,0.1507c-5.4762,0 -12.7109,0.9044 -15.6248,-4.5216z" fill="#82783c"/><path d="M179.3098,170.8541l0.7536,0.2512c0.0502,1.3062 0.1005,2.5623 0.2009,3.768c-0.1004,0.1005 -0.1507,0.1507 -0.2512,0.201c-0.2009,0 -0.4019,0 -0.5526,0c-0.1005,-0.3015 -0.1507,-0.6029 -0.201,-0.9546c0,-1.0048 0.0503,-2.0096 0.0503,-3.2656z" fill="#645a1e"/><path d="M177.3504,174.9738c-0.201,-0.2512 -0.4019,-0.3517 -0.4019,-0.5024c-0.0503,-0.6531 -0.1005,-1.3565 -0.1005,-2.0096c0.0502,-0.3517 0.1507,-0.7536 0.2512,-1.1053l0.6531,0.3517c0.1005,2.512 0.1005,2.512 -0.4019,3.2656z" fill="#645a1e"/><path d="M182.7261,174.9738l-0.8038,0.1507c-0.5527,-1.055 -0.0503,-2.0598 -0.1508,-3.1149l0.5527,-0.1507c0.4019,1.055 0.2512,2.0599 0.4019,3.1149z" fill="#645a1e"/><path d="M92.1927,176.481c-0.2009,-0.2512 -0.4019,-0.3517 -0.4019,-0.5024c-0.0502,-0.6531 -0.1005,-1.3565 -0.1005,-2.0096c0.0503,-0.3517 0.1508,-0.7536 0.2512,-1.1053l0.6532,0.3517c0.1507,2.512 0.1507,2.512 -0.402,3.2656z" fill="#645a1e"/><path d="M97.5685,176.5313l-0.8039,0.1507c-0.5526,-1.0551 -0.0502,-2.0599 -0.1507,-3.1149l0.5527,-0.1507c0.4521,1.055 0.3014,2.0598 0.4019,3.1149z" fill="#645a1e"/><path d="M454.7784,176.4308l-0.6531,-0.2512c0.1004,-1.7082 0.4019,-3.3661 0.1507,-5.1245l0.8038,-0.1508c0.0503,1.8087 -0.0502,3.6676 -0.3014,5.5265z" fill="#645a1e"/><path d="M452.6683,173.2656c0.1005,1.0048 0.2009,1.9092 0.3517,2.9642h-0.8541c-0.0503,-1.055 -0.1005,-2.0096 -0.201,-3.1149z" fill="#645a1e"/></g><g><path d="M305.2112,116.4637c1.0551,1.658 4.0695,4.8231 4.0193,6.7825c-4.371,1.256 -10.5003,0.5024 -14.8712,-0.5024c-4.3709,-1.0048 -9.1438,-2.3613 -13.163,-4.2202c-9.6965,-4.5217 -16.6799,-11.8065 -23.1107,-20.1465c-6.2298,-7.9882 -10.9524,-16.3784 -16.1272,-24.9695c-2.311,-3.8685 -4.2704,-8.1389 -6.3303,-12.1582c-1.6579,-3.2656 -5.9786,-8.4906 -5.6771,-12.2587c0.6028,-1.0048 1.5574,-1.7584 2.7129,-2.0598c1.7082,2.1603 2.6126,5.024 3.969,7.4356c1.2561,2.2105 2.4618,4.3206 3.5169,6.6317c2.3613,5.0743 5.9786,9.5457 8.3399,14.62c2.2608,1.7584 3.8183,4.8733 5.4762,7.1844c1.658,2.311 3.4164,4.6724 5.1748,6.9332c3.7178,4.9235 7.5361,9.4452 12.6104,13.0123c10.3997,7.2848 21.0005,11.7562 33.4601,13.7156z" fill="#824600"/><path d="M325.9605,97.8747c0.3517,-0.9545 1.3565,-1.5072 2.2106,-2.0096c2.914,-1.9091 5.9786,-3.5168 9.194,-4.7728c3.2154,-1.1053 6.3303,-2.4618 9.2945,-4.0695c0.3517,-0.1507 0.7536,-0.3015 1.1556,-0.4522c0.6531,0.3517 0.2512,0.8541 -0.1508,1.1556c-1.2057,0.9545 -2.4617,1.8086 -3.768,2.6125c-4.7226,2.5622 -9.6964,4.6221 -14.62,6.8829c-1.1053,0.5024 -2.1603,0.9546 -3.3159,0.6531z" fill="#642800"/><path d="M339.3748,54.9191c0.8038,5.9284 -0.6029,12.4597 -1.457,18.3378c-0.9043,6.6317 -2.3613,13.1128 -4.4212,19.4933c-3.969,11.8065 -10.249,26.1251 -20.5483,33.7616c-0.4522,-1.9091 0.3014,-4.0695 0.4521,-5.9786c0.1507,-2.4618 0.1507,-4.8733 -0.0502,-7.3351c-0.2512,-4.0193 -1.0048,-8.9931 0.1005,-12.9118c6.6819,-5.0241 11.0026,-12.0577 14.3687,-19.6441c1.8087,-4.1197 3.4666,-8.1389 4.371,-12.6103c0.8038,-4.17 1.1555,-8.6414 2.512,-12.6606c1.5072,-0.8039 2.9642,-0.7536 4.6724,-0.4522z" fill="#824600"/><path d="M296.9215,266.2306c0.1005,-6.0288 1.0048,-12.2084 1.457,-18.187c0.5527,-7.0839 14.3688,-241.3554 16.7803,-248.59c2.4618,-0.6029 4.9236,-0.4522 7.1844,0c1.6077,1.457 -4.1699,56.6713 -4.2704,58.5804c-0.1507,2.5623 -2.5623,62.3987 -2.8135,64.7098c-0.0502,0.1507 -0.0502,0.2512 -0.0502,0.3517c-0.1507,1.3565 -3.7178,52.853 -3.7681,55.164c-0.1507,4.4714 -3.567,68.1764 -5.2752,87.9711z" fill="#824600"/><path d="M274.9664,266.2306c2.5121,-42.5034 15.9765,-247.987 17.6847,-266.777h24.7686c-4.5217,69.985 -17.2325,243.1138 -19.3426,266.777z" fill="#a0640a"/><path d="M291.797,266.2306h-12.7611l25.5222,-161.3222l-12.7611,161.3222" fill="#824600"/><path d="M270.3946,3.925c1.3062,-1.055 2.6125,-2.8135 4.1699,-2.713c0.9043,4.7729 1.0048,43.86 1.0551,48.7333c0.0502,5.225 1.256,10.6007 2.4115,15.675c1.0048,4.8231 2.8135,9.4955 5.3255,13.7157c1.2058,2.0096 3.1652,3.8183 4.0192,5.9786c0.8541,2.1604 0.7537,5.5767 0.5025,7.938c-4.0193,-1.256 -7.5361,-7.6365 -9.4453,-11.0529c-2.3613,-4.3709 -4.0192,-9.0433 -4.9738,-13.9166c-2.2106,-10.651 -4.0192,-53.5061 -3.0646,-64.3581z" fill="#a0640a"/></g><g><path d="M482.0087,257.4125v104.1486h-482.3087v-97.3661v-19.4782c36.2736,0 75.7627,5.7625 97.0646,7.2195c7.5361,0.5024 39.5895,4.7729 54.9631,6.3303c19.5938,2.0096 51.798,3.969 87.7702,3.969c65.2121,0 85.0069,-1.0048 118.3666,-4.5216c24.5676,-2.6125 75.9636,-12.9972 123.9935,-12.9972z" fill="#82783c"/><path d="M49.4883,283.4873c-5.7776,10.651 -19.9454,8.8926 -30.7472,8.8926h-19.0411v-22.3068c6.8829,0.2512 26.7279,0.7034 30.8477,1.256c7.4356,1.0551 18.1368,3.0145 18.9406,12.1582z" fill="#645a1e"/><path d="M448.3476,271.3291c4.1197,-0.5526 26.7782,-1.0048 33.6611,-1.256v22.3068h-21.8043c-10.8017,0 -24.9696,1.7584 -30.7472,-8.8926c0.8038,-9.1437 11.4548,-11.1031 18.8904,-12.1582z" fill="#645a1e"/><path d="M129.019,257.714c-0.1005,-1.256 -0.2009,-2.2609 0.1507,-3.4164l0.7537,0.0503v2.9641z" fill="#82783c"/><path d="M127.2104,256.9604h-0.7034c-0.3014,-0.8039 0.1507,-1.6077 -0.0502,-2.4618l0.8038,-0.3015c0.201,1.0048 -0.1507,1.8087 -0.0502,2.7633z" fill="#82783c"/><path d="M200.1093,257.9652l0.7536,0.2512c0.0503,1.3062 0.1005,2.5622 0.1508,3.768c-0.1005,0.1005 -0.1508,0.1507 -0.2512,0.201c-0.201,0 -0.402,0 -0.5527,0c-0.1005,-0.3015 -0.1507,-0.6532 -0.201,-0.9546c0,-1.0048 0.0503,-2.0096 0.1005,-3.2656z" fill="#82783c"/><path d="M198.0997,262.0347c-0.201,-0.2512 -0.4019,-0.3517 -0.4019,-0.5025c-0.0503,-0.6531 -0.1005,-1.3564 -0.1005,-2.0096c0.0502,-0.3517 0.1507,-0.7536 0.2512,-1.1053l0.6531,0.3517c0.1508,2.512 0.1508,2.512 -0.4019,3.2657z" fill="#82783c"/><path d="M203.4754,262.0849l-0.8038,0.1507c-0.5527,-1.055 -0.0502,-2.0598 -0.1507,-3.1149l0.5526,-0.1507c0.4019,1.0048 0.2512,2.0598 0.4019,3.1149z" fill="#82783c"/><path d="M351.7351,259.6231l-0.6531,-0.2512c0.1005,-1.7082 0.4019,-3.3661 0.1507,-5.1245l0.8039,-0.1507c0,1.8086 -0.1005,3.6675 -0.3015,5.5264z" fill="#82783c"/><path d="M349.5748,256.458c0.1005,1.0048 0.201,1.9091 0.3517,2.9641h-0.8541c-0.0503,-1.055 -0.1005,-2.0096 -0.201,-3.1149z" fill="#82783c"/></g></g><path d="M214.1793,361.5871c1.8087,-9.2945 14.5698,-16.8306 22.759,-19.3426c11.1533,-3.4666 23.8642,-2.6628 35.4195,-3.2154c12.6606,-0.6029 128.1133,-0.7536 139.7691,-0.201c21.0507,1.0048 45.1662,-1.2057 59.6354,17.2325c1.4067,1.6077 2.3613,3.4666 2.8135,5.5265z" fill="#645a1e" stroke-width="0.5024"/><path d="M496.875,54.09731c5.49245,11.06268 3.5611,26.64227 -0.66308,37.78477c-1.86262,4.91319 -4.93987,10.69427 -5.21192,16.19072c-0.39443,7.96915 3.39028,11.34534 4.13485,18.79107c0.98392,9.83915 -0.53528,19.78426 -0.13485,29.66437c0.49268,12.15628 7.00345,22.50553 -0.125,34.56906c-2.64872,4.48245 -6.29836,7.78223 -10.47698,9.86522c0.89271,7.10346 1.56438,14.21971 1.60198,21.3708c0.04349,8.27054 -1.04395,16.60746 0,24.81196c1.03943,8.16901 4.20189,15.92518 6.19992,23.91399c0.36075,1.44242 -0.36639,3.37788 0.70991,4.40369c4.39412,4.18798 9.37582,7.71281 14.02936,11.61051c3.31186,2.77394 6.69049,6.24484 9.80682,10.17348c1.74483,0.41304 3.48806,0.83293 5.22946,1.26067c21.66929,5.32266 43.33369,10.6652 65,16c17.7464,4.36962 48.81387,9.17922 49.59274,33.95035c0.08091,2.57334 -1.71317,4.85772 -2.45925,7.32185c-0.74608,2.46414 -0.52046,5.36003 -2.01521,7.45629c-2.44925,3.43487 -6.35102,5.61313 -9.92972,7.84696c-0.61249,0.38232 -0.94209,1.20743 -1.63012,1.42635c-5.39934,1.71797 -16.32953,2.4998 -21.65891,1.27357c-3.21016,-0.73862 -6.3637,-1.7898 -9.375,-3.125c-0.69434,-0.30787 -1.02815,-1.27448 -1.77074,-1.43405c-3.25383,-0.69918 -6.46078,-2.07853 -9.78724,-1.9739c-0.66179,0.02082 -1.3775,0.38254 -1.98304,0.11472c-2.3046,-1.01929 -4.08119,-3.14829 -6.49698,-3.86529c-5.11252,-1.5174 -10.43298,-2.54343 -15.76226,-2.74126c-28.028,-1.04043 -56.08913,-0.90042 -84.13635,-0.96708c-4.34229,-0.01032 -8.67836,0.38071 -13.00608,0.73619c-2.01435,0.16546 -4.02052,2.02288 -5.86169,2.39112c-4.52449,0.9049 -11.3411,-1.20019 -15.49934,-1.182c-22.04762,0.09643 -44.39946,1.48163 -66.27526,3.87533c-3.95458,0.43272 -8.13815,-0.27865 -12.01093,0.17123c-1.61984,0.18817 -1.94171,2.63882 -3.1105,3.77602c-1.59239,1.54935 -3.69277,2.47792 -5.61926,3.58466c-3.48807,2.00384 -7.79089,4.65953 -11.64371,5.68022c-0.94485,0.25031 -2.02586,-0.12401 -2.91975,0.27142c-2.79354,1.23579 -3.84019,4.79847 -6.16376,6.78143c-3.46793,2.95957 -15.86499,5.44744 -20.45312,5.90625h-53.03988c-25.0608,1.92775 -51.83207,4.28806 -76.84684,0.43359c-10.15066,-1.5641 -29.13598,-7.4356 -31.01953,-7.88066c-16.87977,-3.98858 -34.63731,-1.9364 -51.97041,-2.5683c-3.8304,-0.13964 -7.67649,-1.60041 -11.51266,-0.95132c-7.33747,1.24151 -15.3981,5.59782 -23.3066,6.7474c-4.59489,0.66791 -12.50199,2.02844 -18.30409,2.2193c-6.23191,0.205 -14.81118,-3.03731 -18.99853,-7.88583c-1.18465,-1.3717 -1.94025,-3.06225 -2.87647,-4.61417c-0.35033,-0.58073 0.02519,-1.7205 -0.61691,-1.93887c-2.15005,-0.73119 -4.51796,-0.52345 -6.78825,-0.57949c-18.45651,-0.45551 -36.9173,-1.17059 -55.37817,-0.9548c-8.21629,0.09604 -16.37287,1.63049 -24.44948,3.14211c-4.24245,0.79401 -12.85502,4.35837 -17.38603,3.1615c-7.23222,-1.91039 -12.54844,-5.43395 -17.59989,-10.87733c-5.28316,-5.69307 -6.87477,-25.21992 -1,-30.90625c2.71967,-2.63243 5.63321,-5.06359 8.59375,-7.42187c2.35129,-1.87297 5.66926,-2.03872 8.59375,-2.73437c2.19907,-0.5231 5.53204,0.14909 7.65369,-0.61542c12.21974,-4.40323 18.10738,-5.80414 34.0374,-9.95008c0.7963,-0.20724 1.60317,-0.38018 2.41596,-0.51512c-2.03308,-1.59629 -3.90364,-3.31113 -5.51798,-5.08546c-0.92826,-1.02026 -7.61289,-5.14872 -9.41294,-7.00615c-10.35699,-10.68713 -10.89185,-35.21642 -6.98695,-47.57374c2.10938,-6.67529 4.68728,-13.20179 6.64139,-19.92417c1.46622,-5.044 2.51386,-10.20215 3.60928,-15.33944c0.93033,-4.36306 2.36927,-8.69412 2.46641,-13.1542c0.72646,-33.35385 4.79091,-67.06931 0,-100.08528c-1.19627,-8.24398 -13.77595,-9.8825 -18.64246,-16.64352c-6.73745,-9.3603 -6.61036,-16.94038 -9.5649,-28.63653c-0.1521,-0.60213 -0.9233,-0.99451 -0.92807,-1.61553c-0.03125,-4.06641 -0.80449,-8.54373 1.06971,-12.15262c3.94473,-7.59581 9.35566,-15.67097 14.86019,-22.54763c2.77651,-3.46862 5.71372,-7.14347 9.20553,-9.99539c0.63482,-0.51849 3.86368,-2.46037 4.03336,-3.3887c0.13863,-0.75847 -0.37812,-1.56485 -0.1688,-2.30693c0.29253,-1.03703 1.79362,-1.74115 1.61019,-2.80292c-0.74843,-4.33224 -3.9593,-8.84311 -4.94926,-13.40259c-1.6759,-7.7187 -3.22188,-15.46503 -4.83282,-23.19754l-4.78062,-17.21022c-1.74953,-10.11446 -5.3585,-17.2611 0.3506,-26.49825c1.01123,-1.63613 1.33319,-3.70387 2.59977,-5.15139c2.05601,-2.34973 6.64322,-4.01757 9.33217,-5.20708c2.68895,-1.18951 7.00875,-3.46186 10.13043,-3.40259c1.92306,0.03651 3.66965,1.18919 5.56051,1.54153c15.38295,2.8664 20.93247,21.69449 31.13019,32.02668c0.58665,0.59439 5.02825,0.41107 5.06065,0.41823c4.90831,1.08517 9.38351,2.4413 13.56295,5.41818c3.85179,2.74351 7.24154,6.39424 10.34209,9.89381c1.07838,1.21715 1.58437,3.36527 3.17485,3.70399c10.42743,2.22071 21.18106,2.45329 31.76477,3.73703c4.47186,0.54241 5.22876,1.5852 11.7575,0.07431c1.05536,-0.24423 -0.84162,-2.07143 -0.78606,-3.15325c0.15311,-2.98119 -0.48074,-8.99317 1.24733,-11.28632c8.27727,-10.98391 9.34462,-11.76486 22.31849,-16.32974c2.27778,-0.80144 4.75321,0.86604 7.10331,1.42066c12.89674,3.04362 16.65842,14.30551 25.92915,22.96905c0.79284,0.74091 2.08118,-0.61576 3.12596,-0.90895c1.30018,-0.36486 2.80485,-0.72777 4.11989,-0.85433c14.65942,-1.41082 29.32802,-2.72652 44,-4c10.99812,-0.9546 33.55465,1.84719 36.02028,1.89733c34.88002,0.70931 62.02055,0.31533 95.29764,-0.98266c15.87089,-0.61905 31.75235,-2.88512 47.60846,-1.96197c19.68129,1.14585 35.3106,4.54056 55.18757,8.41872c4.40812,0.86006 35.74478,6.41358 53.24832,10.0514c16.0016,3.32566 32.00852,6.62604 48,10c13.24465,2.79442 42.68372,11.95795 51.99489,25.02139c2.26869,3.18294 4.46659,14.3034 4.45313,15.54688c-0.02546,2.35079 -1.86956,4.32059 -2.61299,6.55088c-0.74343,2.23029 -0.45003,4.91259 -1.84013,6.8085c-5.08084,6.92956 -12.90501,10.51007 -21.09375,10.54688c-16.01897,0.072 -32.0476,-0.35835 -48.06927,-0.49088c0.74235,1.05886 1.39559,2.14971 1.94427,3.25486z" fill="#00ff21" stroke-width="0.5"/></g></g></svg>